<?xml version="1.0" encoding="iso-8859-1"?>
<!-- Generator: Adobe Illustrator 16.0.0, SVG Export Plug-In . SVG Version: 6.00 Build 0)  -->
<!DOCTYPE svg PUBLIC "-//W3C//DTD SVG 1.1//EN" "http://www.w3.org/Graphics/SVG/1.1/DTD/svg11.dtd">
<svg version="1.1" id="Capa_1" xmlns="http://www.w3.org/2000/svg" xmlns:xlink="http://www.w3.org/1999/xlink" x="0px" y="0px"
	 width="527.837px" height="527.837px" viewBox="0 0 527.837 527.837" style="enable-background:new 0 0 527.837 527.837;"
	 xml:space="preserve">
<g>
	<g>
		<path d="M95.933,137.75c-8.835-16.754-26.105-27.167-45.087-27.167c-8.195,0-16.4,2.037-23.696,5.881
			C2.326,129.554-7.218,160.413,5.864,185.237c8.835,16.763,26.105,27.176,45.068,27.176c0.01,0,0,0,0.01,0
			c8.195,0,16.399-2.037,23.705-5.881C99.461,193.441,109.014,162.583,95.933,137.75z"/>
		<path d="M513.068,332.786l-108.506,70.188l-92.766-93.837c-10.576-10.662-28.821-11.427-40.286-1.577l-53.771,46.444
			c-6.512,5.643-14.755,4.064-18.762-3.538l-43.681-82.85c-4.255-8.061-1.272-17.7,6.77-21.945l85.508-42.553
			c0.01,0,26.556-15.176,41.052-23.466l22.97,15.769c1.663,1.138,3.538,1.683,5.412,1.683c3.041,0,6.043-1.444,7.889-4.15
			c2.983-4.36,1.884-10.308-2.467-13.301l-17.595-12.087c0.258-0.861,0.535-1.722,0.535-2.668V65.82
			c0-5.288-4.274-9.562-9.562-9.562s-9.562,4.274-9.562,9.562v88.998l-33.67-23.122V37.64c0-5.288-4.274-9.562-9.562-9.562
			s-9.562,4.274-9.562,9.562v80.927l-33.029-22.682c-4.37-2.983-10.309-1.884-13.302,2.467c-2.983,4.361-1.884,10.309,2.467,13.302
			l58.216,39.971L71.405,235.449c-13.301,7.009-18.599,23.142-12.087,36.711l80.526,167.2c6.216,12.929,22.032,23.935,36.012,25.034
			c13.158,1.023,32.369-5.947,42.094-15.396l65.494-63.533c6.579-6.32,17.385-6.034,23.601,0.449l47.362,49.505l-69.558,45.002
			c-10.365,6.713-9.333,15.729,2.879,17.595c22.777,3.471,62.07,3.777,111.24-18.686c87.325-39.904,117.686-103.677,127.908-136.925
			C530.501,330.605,523.425,326.073,513.068,332.786z"/>
	</g>
</g>
<g>
</g>
<g>
</g>
<g>
</g>
<g>
</g>
<g>
</g>
<g>
</g>
<g>
</g>
<g>
</g>
<g>
</g>
<g>
</g>
<g>
</g>
<g>
</g>
<g>
</g>
<g>
</g>
<g>
</g>
</svg>
